<svg xmlns="http://www.w3.org/2000/svg" viewBox="0 0 1440 320"><path fill="#1565c0" fill-opacity="1" d="M0,96L16,128C32,160,64,224,96,240C128,256,160,224,192,202.7C224,181,256,171,288,149.3C320,128,352,96,384,101.3C416,107,448,149,480,170.7C512,192,544,192,576,181.3C608,171,640,149,672,138.7C704,128,736,128,768,128C800,128,832,128,864,117.3C896,107,928,85,960,106.7C992,128,1024,192,1056,186.7C1088,181,1120,107,1152,85.3C1184,64,1216,96,1248,96C1280,96,1312,64,1344,53.3C1376,43,1408,53,1424,58.7L1440,64L1440,320L1424,320C1408,320,1376,320,1344,320C1312,320,1280,320,1248,320C1216,320,1184,320,1152,320C1120,320,1088,320,1056,320C1024,320,992,320,960,320C928,320,896,320,864,320C832,320,800,320,768,320C736,320,704,320,672,320C640,320,608,320,576,320C544,320,512,320,480,320C448,320,416,320,384,320C352,320,320,320,288,320C256,320,224,320,192,320C160,320,128,320,96,320C64,320,32,320,16,320L0,320Z"></path></svg>